<?xml version="1.0" encoding="UTF-8" standalone="no"?>
<!DOCTYPE svg PUBLIC "-//W3C//DTD SVG 1.1//EN" "http://www.w3.org/Graphics/SVG/1.1/DTD/svg11.dtd">
<svg xmlns="http://www.w3.org/2000/svg" xmlns:xl="http://www.w3.org/1999/xlink" version="1.1" viewBox="0 0 200 116" width="200pt" height="116pt" xmlns:dc="http://purl.org/dc/elements/1.1/"><metadata> Produced by OmniGraffle 6.6 <dc:date>2016-06-25 21:11:31 +0000</dc:date></metadata><defs/><g stroke="none" stroke-opacity="1" stroke-dasharray="none" fill="none" fill-opacity="1"><title>Canvas 1</title><g><title>Layer 4</title><path d="M 161.99034 19.421178 L 163.12783 18.767932 L 164.26483 19.421178 L 163.12783 20.074423 Z" fill="#fffffe"/><path d="M 35.715166 19.421178 L 36.852656 18.767932 L 37.989662 19.421178 L 36.852656 20.074423 Z" fill="#fffffe"/><path d="M 161.99034 109.86416 L 163.12783 109.210916 L 164.26483 109.86416 L 163.12783 110.51741 Z" fill="#fffffe"/><path d="M 35.715166 109.86416 L 36.852656 109.210916 L 37.989662 109.86416 L 36.852656 110.51741 Z" fill="#fffffe"/><path d="M 6.0291515 98.02768 L 6.0291515 16.131803 C 6.0291515 10.313608 10.745691 5.5970686 16.563886 5.5970686 L 183.43592 5.5970686 C 189.25412 5.5970686 193.97065 10.313608 193.97065 16.131803 L 193.97065 98.02768 C 193.97065 103.845876 189.25412 108.562416 183.43592 108.562416 L 16.563886 108.562416 C 10.745691 108.562416 6.0291515 103.845876 6.0291515 98.02768 Z" fill="#3e2716"/><rect x="14.929416" y="14.528325" width="170.20606" height="85.10303" fill="#279f5b"/><path d="M 182.05055 91.735605 L 182.05055 22.423783 L 185.13518 19.034073 L 185.13518 95.125315 Z" fill="#0f4c28"/><path d="M 22.824923 96.57805 L 94.07372 96.57805 L 95.04221 99.662684 L 19.435212 99.662684 Z" fill="#0f4c28"/><path d="M 105.95354 96.57805 L 177.20234 96.57805 L 180.59205 99.662684 L 104.98505 99.662684 Z" fill="#0f4c28"/><path d="M 177.2021 17.613058 L 105.9533 17.613058 L 104.98481 14.528422 L 180.59181 14.528422 Z" fill="#0f4c28"/><path d="M 94.07353 17.613058 L 22.824729 17.613058 L 19.435019 14.528422 L 95.042016 14.528422 Z" fill="#0f4c28"/><path d="M 163.127635 103.315484 L 163.78088 104.452973 L 163.127635 105.58998 L 162.47439 104.452973 Z" fill="#fffffe"/><path d="M 142.25724 103.315484 L 142.910484 104.452973 L 142.25724 105.58998 L 141.60399 104.452973 Z" fill="#fffffe"/><path d="M 121.38689 103.315484 L 122.04014 104.452973 L 121.38689 105.58998 L 120.733646 104.452973 Z" fill="#fffffe"/><path d="M 191.09405 77.950187 L 189.95656 78.60343 L 188.81955 77.950187 L 189.95656 77.29694 Z" fill="#fffffe"/><path d="M 191.09405 57.07979 L 189.95656 57.733036 L 188.81955 57.07979 L 189.95656 56.426545 Z" fill="#fffffe"/><path d="M 191.09405 36.209443 L 189.95656 36.862688 L 188.81955 36.209443 L 189.95656 35.556197 Z" fill="#fffffe"/><path d="M 11.245092 77.950187 L 10.107602 78.60343 L 8.9705966 77.950187 L 10.107602 77.29694 Z" fill="#fffffe"/><path d="M 11.245092 57.07979 L 10.107602 57.733036 L 8.9705966 57.07979 L 10.107602 56.426545 Z" fill="#fffffe"/><path d="M 11.245092 36.209443 L 10.107602 36.862688 L 8.9705966 36.209443 L 10.107602 35.556197 Z" fill="#fffffe"/><path d="M 163.127635 9.26488 L 163.78088 10.40237 L 163.127635 11.5393755 L 162.47439 10.40237 Z" fill="#fffffe"/><path d="M 142.25724 9.26488 L 142.910484 10.40237 L 142.25724 11.5393755 L 141.60399 10.40237 Z" fill="#fffffe"/><path d="M 121.38689 9.26488 L 122.04014 10.40237 L 121.38689 11.5393755 L 120.733646 10.40237 Z" fill="#fffffe"/><path d="M 78.593255 103.315484 L 79.2465 104.452973 L 78.593255 105.58998 L 77.94001 104.452973 Z" fill="#fffffe"/><path d="M 57.72286 103.315484 L 58.376104 104.452973 L 57.72286 105.58998 L 57.069613 104.452973 Z" fill="#fffffe"/><path d="M 36.852463 103.315484 L 37.505708 104.452973 L 36.852463 105.58998 L 36.199217 104.452973 Z" fill="#fffffe"/><path d="M 78.593255 9.26488 L 79.2465 10.40237 L 78.593255 11.5393755 L 77.94001 10.40237 Z" fill="#fffffe"/><path d="M 57.72286 9.26488 L 58.376104 10.40237 L 57.72286 11.5393755 L 57.069613 10.40237 Z" fill="#fffffe"/><path d="M 36.852463 9.26488 L 37.505708 10.40237 L 36.852463 11.5393755 L 36.199217 10.40237 Z" fill="#fffffe"/><path d="M 185.11659 14.509536 L 178.65483 14.528422 L 178.65483 5.59702 L 183.51325 5.59702 C 189.28884 5.59702 193.97099 10.279178 193.97099 16.054276 L 193.97099 20.971292 L 185.13499 20.971292 Z" fill="#c0c1bf"/><path d="M 185.13533 19.128597 C 187.67616 19.128597 189.73565 17.069106 189.73565 14.5282765 C 189.73565 11.987447 187.67616 9.927956 185.13533 9.927956 C 182.5945 9.927956 180.53501 11.987447 180.53501 14.5282765 C 180.53501 17.069106 182.5945 19.128597 185.13533 19.128597 Z" fill="#141313"/><path d="M 185.08748 99.88781 L 185.0686 93.426053 L 194 93.426053 L 194 98.284476 C 194 104.06006 189.31784 108.742216 183.54226 108.742216 L 178.62573 108.742216 L 178.62573 99.90621 Z" fill="#c0c1bf"/><path d="M 14.883413 14.395109 L 21.345169 14.413995 L 21.345169 5.4825932 L 16.486746 5.4825932 C 10.711164 5.4825932 6.0290062 10.164751 6.0290062 15.939849 L 6.0290062 20.856865 L 14.865012 20.856865 Z" fill="#c0c1bf"/><path d="M 14.912516 99.77338 L 14.931402 93.311626 L 6 93.311626 L 6 98.17005 C 6 103.94563 10.682158 108.62779 16.45774 108.62779 L 21.374272 108.62779 L 21.374272 99.791783 Z" fill="#c0c1bf"/><path d="M 185.13533 104.231625 C 187.67616 104.231625 189.73565 102.172134 189.73565 99.631305 C 189.73565 97.090475 187.67616 95.030984 185.13533 95.030984 C 182.5945 95.030984 180.53501 97.090475 180.53501 99.631305 C 180.53501 102.172134 182.5945 104.231625 185.13533 104.231625 Z" fill="#141313"/><path d="M 14.9292225 104.231625 C 17.470052 104.231625 19.529543 102.172134 19.529543 99.631305 C 19.529543 97.090475 17.470052 95.030984 14.9292225 95.030984 C 12.388393 95.030984 10.328902 97.090475 10.328902 99.631305 C 10.328902 102.172134 12.388393 104.231625 14.9292225 104.231625 Z" fill="#141313"/><path d="M 14.9292225 19.128597 C 17.470052 19.128597 19.529543 17.069106 19.529543 14.5282765 C 19.529543 11.987447 17.470052 9.927956 14.9292225 9.927956 C 12.388393 9.927956 10.328902 11.987447 10.328902 14.5282765 C 10.328902 17.069106 12.388393 19.128597 14.9292225 19.128597 Z" fill="#141313"/><path d="M 18.014004 22.423976 L 18.014004 91.7358 L 14.929368 95.12551 L 14.929368 19.034266 Z" fill="#0f4c28"/><path d="M 93.798235 108.74202 L 93.798235 103.513636 C 93.798235 102.706885 94.45245 102.05267 95.2592 102.05267 L 104.80511 102.05267 C 105.61234 102.05267 106.26607 102.706885 106.26607 103.513636 L 106.26607 108.74202 Z" fill="#c0c1bf"/><path d="M 93.798235 10.8255026 L 93.798235 5.597117 L 106.26607 5.597117 L 106.26607 10.8255026 C 106.26607 11.6322536 105.61234 12.2864676 104.80511 12.2864676 L 95.2592 12.2864676 C 94.45245 12.2864676 93.798235 11.6322536 93.798235 10.8255026 Z" fill="#c0c1bf"/><path d="M 100.03225 106.652847 C 102.57308 106.652847 104.63257 104.593356 104.63257 102.052526 C 104.63257 99.511696 102.57308 97.452205 100.03225 97.452205 C 97.49142 97.452205 95.43193 99.511696 95.43193 102.052526 C 95.43193 104.593356 97.49142 106.652847 100.03225 106.652847 Z" fill="#141313"/><path d="M 100.03225 16.707376 C 102.57308 16.707376 104.63257 14.647885 104.63257 12.107055 C 104.63257 9.5662253 102.57308 7.5067343 100.03225 7.5067343 C 97.49142 7.5067343 95.43193 9.5662253 95.43193 12.107055 C 95.43193 14.647885 97.49142 16.707376 100.03225 16.707376 Z" fill="#141313"/><path d="M 29.872565 28.152102 C 28.292476 28.152102 27.012134 26.871276 27.012134 25.291671 C 27.012134 23.711582 28.292476 22.430756 29.872565 22.430756 C 31.452655 22.430756 32.732996 23.711582 32.732996 25.291671 C 32.732996 26.871276 31.452655 28.152102 29.872565 28.152102 Z" fill="#fffbd0"/><path d="M 161.67684 25.042527 C 160.49964 25.042527 159.54229 24.085177 159.54229 22.908463 C 159.54229 21.731265 160.49964 20.773914 161.67684 20.773914 C 162.85355 20.773914 163.8109 21.731265 163.8109 22.908463 C 163.8109 24.085177 162.85355 25.042527 161.67684 25.042527 Z" fill="#fffffe"/><path d="M 161.6766 20.047644 C 160.09651 20.047644 158.81617 21.32847 158.81617 22.908075 C 158.81617 24.488165 160.09651 25.76899 161.6766 25.76899 C 163.25669 25.76899 164.53751 24.488165 164.53751 22.908075 C 164.53751 21.32847 163.25669 20.047644 161.6766 20.047644 M 161.6766 21.500377 C 162.45284 21.500377 163.08478 22.131832 163.08478 22.908075 C 163.08478 23.684803 162.45284 24.316258 161.6766 24.316258 C 160.90035 24.316258 160.2689 23.684803 160.2689 22.908075 C 160.2689 22.131832 160.90035 21.500377 161.6766 21.500377" fill="#303478"/><path d="M 79.73055 44.353657 C 78.553353 44.353657 77.596 43.395822 77.596 42.219108 C 77.596 41.042395 78.553353 40.085044 79.73055 40.085044 C 80.907265 40.085044 81.864616 41.042395 81.864616 42.219108 C 81.864616 43.395822 80.907265 44.353657 79.73055 44.353657 Z" fill="#fffffe"/><path d="M 79.73055 39.35858 C 78.15046 39.35858 76.869636 40.639406 76.869636 42.219011 C 76.869636 43.7991 78.15046 45.079927 79.73055 45.079927 C 81.31064 45.079927 82.59098 43.7991 82.59098 42.219011 C 82.59098 40.639406 81.31064 39.35858 79.73055 39.35858 M 79.73055 40.811313 C 80.506795 40.811313 81.13825 41.442768 81.13825 42.219011 C 81.13825 42.99574 80.506795 43.627194 79.73055 43.627194 C 78.954307 43.627194 78.32237 42.99574 78.32237 42.219011 C 78.32237 41.442768 78.954307 40.811313 79.73055 40.811313" fill="#0f4c28"/><path d="M 96.719293 94.25164 C 95.54258 94.25164 94.58523 93.293806 94.58523 92.117577 C 94.58523 90.940863 95.54258 89.98351 96.719293 89.98351 C 97.89649 89.98351 98.85384 90.940863 98.85384 92.117577 C 98.85384 93.293806 97.89649 94.25164 96.719293 94.25164 Z" fill="#fffffe"/><path d="M 96.719293 89.256903 C 95.139204 89.256903 93.85886 90.53773 93.85886 92.11782 C 93.85886 93.697424 95.139204 94.97825 96.719293 94.97825 C 98.29938 94.97825 99.579724 93.697424 99.579724 92.11782 C 99.579724 90.53773 98.29938 89.256903 96.719293 89.256903 M 96.719293 90.709636 C 97.495537 90.709636 98.12699 91.34109 98.12699 92.11782 C 98.12699 92.89406 97.495537 93.525517 96.719293 93.525517 C 95.94305 93.525517 95.311595 92.89406 95.311595 92.11782 C 95.311595 91.34109 95.94305 90.709636 96.719293 90.709636" fill="#523520"/><path d="M 52.237388 66.437376 C 51.060674 66.437376 50.103323 65.480025 50.103323 64.30331 C 50.103323 63.126113 51.060674 62.168762 52.237388 62.168762 C 53.414586 62.168762 54.371937 63.126113 54.371937 64.30331 C 54.371937 65.480025 53.414586 66.437376 52.237388 66.437376 Z" fill="#fffffe"/><path d="M 52.237388 61.44254 C 50.6573 61.44254 49.376473 62.723367 49.376473 64.302972 C 49.376473 65.88306 50.6573 67.163887 52.237388 67.163887 C 53.817477 67.163887 55.09782 65.88306 55.09782 64.302972 C 55.09782 62.723367 53.817477 61.44254 52.237388 61.44254 M 52.237388 62.895274 C 53.01363 62.895274 53.645086 63.52673 53.645086 64.302972 C 53.645086 65.0797 53.01363 65.711154 52.237388 65.711154 C 51.461144 65.711154 50.829205 65.0797 50.829205 64.302972 C 50.829205 63.52673 51.461144 62.895274 52.237388 62.895274" fill="#441a66"/><path d="M 97.205426 31.012775 C 95.625337 31.012775 94.344995 29.73195 94.344995 28.152344 C 94.344995 26.572255 95.625337 25.291429 97.205426 25.291429 C 98.785515 25.291429 100.06586 26.572255 100.06586 28.152344 C 100.06586 29.73195 98.785515 31.012775 97.205426 31.012775 Z" fill="#fcea1b"/><path d="M 64.83176 80.81086 C 63.25167 80.81086 61.971328 79.530034 61.971328 77.95043 C 61.971328 76.37034 63.25167 75.089514 64.83176 75.089514 C 66.411848 75.089514 67.69219 76.37034 67.69219 77.95043 C 67.69219 79.530034 66.411848 80.81086 64.83176 80.81086 Z" fill="#a4262b"/><path d="M 25.123727 91.547137 C 23.946529 91.547137 22.989178 90.5893 22.989178 89.41307 C 22.989178 88.23636 23.946529 87.27901 25.123727 87.27901 C 26.300925 87.27901 27.258276 88.23636 27.258276 89.41307 C 27.258276 90.5893 26.300925 91.547137 25.123727 91.547137 Z" fill="#fffbd2"/><path d="M 25.123727 86.5524 C 23.543638 86.5524 22.263296 87.833225 22.263296 89.41283 C 22.263296 90.99292 23.543638 92.273745 25.123727 92.273745 C 26.703816 92.273745 27.984158 90.99292 27.984158 89.41283 C 27.984158 87.833225 26.703816 86.5524 25.123727 86.5524 M 25.123727 88.00513 C 25.89997 88.00513 26.531425 88.636587 26.531425 89.41283 C 26.531425 90.18956 25.89997 90.82101 25.123727 90.82101 C 24.347483 90.82101 23.716029 90.18956 23.716029 89.41283 C 23.716029 88.636587 24.347483 88.00513 25.123727 88.00513" fill="#a4262b"/><path d="M 167.39794 92.117577 C 165.81785 92.117577 164.53703 90.83675 164.53703 89.257146 C 164.53703 87.677056 165.81785 86.39623 167.39794 86.39623 C 168.97803 86.39623 170.25837 87.677056 170.25837 89.257146 C 170.25837 90.83675 168.97803 92.117577 167.39794 92.117577 Z" fill="#303478"/><path d="M 94.344753 63.45419 C 92.764664 63.45419 91.48432 62.173363 91.48432 60.593758 C 91.48432 59.01367 92.764664 57.732842 94.344753 57.732842 C 95.92484 57.732842 97.205184 59.01367 97.205184 60.593758 C 97.205184 62.173363 95.92484 63.45419 94.344753 63.45419 Z" fill="#441a66"/><path d="M 112.52982 61.77018 C 110.94973 61.77018 109.668906 60.489355 109.668906 58.90975 C 109.668906 57.32966 110.94973 56.048834 112.52982 56.048834 C 114.10991 56.048834 115.39025 57.32966 115.39025 58.90975 C 115.39025 60.489355 114.10991 61.77018 112.52982 61.77018 Z" fill="#e47823"/><path d="M 141.60419 61.043717 C 140.42699 61.043717 139.46964 60.085882 139.46964 58.909653 C 139.46964 57.73294 140.42699 56.77559 141.60419 56.77559 C 142.781385 56.77559 143.73874 57.73294 143.73874 58.909653 C 143.73874 60.085882 142.781385 61.043717 141.60419 61.043717 Z" fill="#fffbd2"/><path d="M 141.60419 56.048834 C 140.0241 56.048834 138.74327 57.32966 138.74327 58.909265 C 138.74327 60.489355 140.0241 61.77018 141.60419 61.77018 C 143.18428 61.77018 144.46462 60.489355 144.46462 58.909265 C 144.46462 57.32966 143.18428 56.048834 141.60419 56.048834 M 141.60419 57.501567 C 142.38043 57.501567 143.011885 58.133022 143.011885 58.909265 C 143.011885 59.685993 142.38043 60.317448 141.60419 60.317448 C 140.82794 60.317448 140.196005 59.685993 140.196005 58.909265 C 140.196005 58.133022 140.82794 57.501567 141.60419 57.501567" fill="#e47823"/><path d="M 47.641086 55.395783 C 46.060997 55.395783 44.780655 54.114957 44.780655 52.535352 C 44.780655 50.955263 46.060997 49.674436 47.641086 49.674436 C 49.221175 49.674436 50.501517 50.955263 50.501517 52.535352 C 50.501517 54.114957 49.221175 55.395783 47.641086 55.395783 Z" fill="#0f4c28"/><path d="M 123.183195 86.53216 C 121.603106 86.53216 120.32228 85.25133 120.32228 83.671727 C 120.32228 82.09164 121.603106 80.81081 123.183195 80.81081 C 124.763284 80.81081 126.04363 82.09164 126.04363 83.671727 C 126.04363 85.25133 124.763284 86.53216 123.183195 86.53216 Z" fill="#523520"/><path d="M 132.82329 45.079878 C 131.2432 45.079878 129.96286 43.799052 129.96286 42.219447 C 129.96286 40.639358 131.2432 39.358532 132.82329 39.358532 C 134.40338 39.358532 135.6842 40.639358 135.6842 42.219447 C 135.6842 43.799052 134.40338 45.079878 132.82329 45.079878 Z" fill="#141313"/><path d="M 176.04475 88.68651 C 174.86756 88.68651 173.91021 87.728677 173.91021 86.55245 C 173.91021 85.375734 174.86756 84.418383 176.04475 84.418383 C 177.22147 84.418383 178.17882 85.375734 178.17882 86.55245 C 178.17882 87.728677 177.22147 88.68651 176.04475 88.68651 Z" fill="#fffbd2"/><path d="M 176.04466 83.691726 C 174.46457 83.691726 173.18423 84.97255 173.18423 86.55264 C 173.18423 88.132246 174.46457 89.41307 176.04466 89.41307 C 177.62475 89.41307 178.90509 88.132246 178.90509 86.55264 C 178.90509 84.97255 177.62475 83.691726 176.04466 83.691726 M 176.04466 85.14446 C 176.8209 85.14446 177.45236 85.775913 177.45236 86.55264 C 177.45236 87.328885 176.8209 87.96034 176.04466 87.96034 C 175.26841 87.96034 174.63648 87.328885 174.63648 86.55264 C 174.63648 85.775913 175.26841 85.14446 176.04466 85.14446" fill="#fcea1b"/></g></g></svg>
