<?xml version="1.0" encoding="UTF-8" standalone="no"?>
<!DOCTYPE svg PUBLIC "-//W3C//DTD SVG 1.1//EN" "http://www.w3.org/Graphics/SVG/1.1/DTD/svg11.dtd">
<svg xmlns="http://www.w3.org/2000/svg" xmlns:xl="http://www.w3.org/1999/xlink" version="1.1" viewBox="0 0 200 116" width="200pt" height="116pt" xmlns:dc="http://purl.org/dc/elements/1.1/"><metadata> Produced by OmniGraffle 6.6 <dc:date>2016-06-25 21:12:28 +0000</dc:date></metadata><defs/><g stroke="none" stroke-opacity="1" stroke-dasharray="none" fill="none" fill-opacity="1"><title>Canvas 1</title><g><title>shoot in order</title><path d="M 6.0292 98.915277 L 6.0292 17.019399 C 6.0292 11.2012035 10.745739 6.484664 16.563934 6.484664 L 183.43597 6.484664 C 189.25416 6.484664 193.9707 11.2012035 193.9707 17.019399 L 193.9707 98.915277 C 193.9707 104.73347 189.25416 109.45001 183.43597 109.45001 L 16.563934 109.45001 C 10.745739 109.45001 6.0292 104.73347 6.0292 98.915277 Z" fill="#3e2716"/><rect x="14.929319" y="15.4159205" width="170.20606" height="85.10303" fill="#279f5b"/><path d="M 182.05055 92.6232 L 182.05055 23.311378 L 185.13518 19.921668 L 185.13518 96.01291 Z" fill="#0f4c28"/><path d="M 22.824923 97.465643 L 94.07372 97.465643 L 95.04221 100.55028 L 19.435212 100.55028 Z" fill="#0f4c28"/><path d="M 105.95354 97.465643 L 177.20234 97.465643 L 180.59205 100.55028 L 104.98505 100.55028 Z" fill="#0f4c28"/><path d="M 177.20215 18.500653 L 105.95335 18.500653 L 104.98486 15.416017 L 180.59186 15.416017 Z" fill="#0f4c28"/><path d="M 94.07353 18.500653 L 22.824729 18.500653 L 19.435019 15.416017 L 95.042016 15.416017 Z" fill="#0f4c28"/><path d="M 163.127635 104.20308 L 163.78088 105.34057 L 163.127635 106.477575 L 162.47439 105.34057 Z" fill="#fffffe"/><path d="M 142.25729 104.20308 L 142.91053 105.34057 L 142.25729 106.477575 L 141.60404 105.34057 Z" fill="#fffffe"/><path d="M 121.38689 104.20308 L 122.04014 105.34057 L 121.38689 106.477575 L 120.733646 105.34057 Z" fill="#fffffe"/><path d="M 191.09405 78.83778 L 189.95656 79.49103 L 188.81955 78.83778 L 189.95656 78.184537 Z" fill="#fffffe"/><path d="M 191.09405 57.967435 L 189.95656 58.62068 L 188.81955 57.967435 L 189.95656 57.31419 Z" fill="#fffffe"/><path d="M 191.09405 37.097038 L 189.95656 37.750284 L 188.81955 37.097038 L 189.95656 36.443793 Z" fill="#fffffe"/><path d="M 11.245092 78.83778 L 10.107602 79.49103 L 8.9705966 78.83778 L 10.107602 78.184537 Z" fill="#fffffe"/><path d="M 11.245092 57.967435 L 10.107602 58.62068 L 8.9705966 57.967435 L 10.107602 57.31419 Z" fill="#fffffe"/><path d="M 11.245092 37.097038 L 10.107602 37.750284 L 8.9705966 37.097038 L 10.107602 36.443793 Z" fill="#fffffe"/><path d="M 163.127635 10.1524756 L 163.78088 11.2899655 L 163.127635 12.426971 L 162.47439 11.2899655 Z" fill="#fffffe"/><path d="M 142.25729 10.1524756 L 142.91053 11.2899655 L 142.25729 12.426971 L 141.60404 11.2899655 Z" fill="#fffffe"/><path d="M 121.38689 10.1524756 L 122.04014 11.2899655 L 121.38689 12.426971 L 120.733646 11.2899655 Z" fill="#fffffe"/><path d="M 78.593255 104.20308 L 79.2465 105.34057 L 78.593255 106.477575 L 77.94001 105.34057 Z" fill="#fffffe"/><path d="M 57.72286 104.20308 L 58.376104 105.34057 L 57.72286 106.477575 L 57.069613 105.34057 Z" fill="#fffffe"/><path d="M 36.85251 104.20308 L 37.505757 105.34057 L 36.85251 106.477575 L 36.199265 105.34057 Z" fill="#fffffe"/><path d="M 78.593255 10.1524756 L 79.2465 11.2899655 L 78.593255 12.426971 L 77.94001 11.2899655 Z" fill="#fffffe"/><path d="M 57.72286 10.1524756 L 58.376104 11.2899655 L 57.72286 12.426971 L 57.069613 11.2899655 Z" fill="#fffffe"/><path d="M 36.85251 10.1524756 L 37.505757 11.2899655 L 36.85251 12.426971 L 36.199265 11.2899655 Z" fill="#fffffe"/><path d="M 185.11659 15.397132 L 178.65483 15.416017 L 178.65483 6.4846157 L 183.51325 6.4846157 C 189.28884 6.4846157 193.97099 11.166774 193.97099 16.941871 L 193.97099 21.858888 L 185.13499 21.858888 Z" fill="#c0c1bf"/><path d="M 185.13533 20.016193 C 187.67616 20.016193 189.73565 17.956702 189.73565 15.415872 C 189.73565 12.875042 187.67616 10.8155514 185.13533 10.8155514 C 182.5945 10.8155514 180.53501 12.875042 180.53501 15.415872 C 180.53501 17.956702 182.5945 20.016193 185.13533 20.016193 Z" fill="#141313"/><path d="M 185.08748 100.775404 L 185.0686 94.31365 L 194 94.31365 L 194 99.17207 C 194 104.947653 189.31784 109.62981 183.54226 109.62981 L 178.62573 109.62981 L 178.62573 100.793806 Z" fill="#c0c1bf"/><path d="M 14.883413 15.282705 L 21.345169 15.30159 L 21.345169 6.3701888 L 16.486746 6.3701888 C 10.711164 6.3701888 6.0290062 11.052347 6.0290062 16.827928 L 6.0290062 21.744461 L 14.865012 21.744461 Z" fill="#c0c1bf"/><path d="M 14.912516 100.66098 L 14.931402 94.19922 L 6 94.19922 L 6 99.057645 C 6 104.833226 10.682158 109.515384 16.45774 109.515384 L 21.374272 109.515384 L 21.374272 100.67938 Z" fill="#c0c1bf"/><path d="M 185.13533 105.11927 C 187.67616 105.11927 189.73565 103.05978 189.73565 100.51895 C 189.73565 97.97812 187.67616 95.91863 185.13533 95.91863 C 182.5945 95.91863 180.53501 97.97812 180.53501 100.51895 C 180.53501 103.05978 182.5945 105.11927 185.13533 105.11927 Z" fill="#141313"/><path d="M 14.9292225 105.11927 C 17.470052 105.11927 19.529543 103.05978 19.529543 100.51895 C 19.529543 97.97812 17.470052 95.91863 14.9292225 95.91863 C 12.388393 95.91863 10.328902 97.97812 10.328902 100.51895 C 10.328902 103.05978 12.388393 105.11927 14.9292225 105.11927 Z" fill="#141313"/><path d="M 14.9292225 20.016193 C 17.470052 20.016193 19.529543 17.956702 19.529543 15.415872 C 19.529543 12.875042 17.470052 10.8155514 14.9292225 10.8155514 C 12.388393 10.8155514 10.328902 12.875042 10.328902 15.415872 C 10.328902 17.956702 12.388393 20.016193 14.9292225 20.016193 Z" fill="#141313"/><path d="M 18.014004 23.311572 L 18.014004 92.623394 L 14.929368 96.013104 L 14.929368 19.921862 Z" fill="#0f4c28"/><path d="M 93.798235 109.62962 L 93.798235 104.40123 C 93.798235 103.59448 94.45245 102.940267 95.2592 102.940267 L 104.80511 102.940267 C 105.61234 102.940267 106.26607 103.59448 106.26607 104.40123 L 106.26607 109.62962 Z" fill="#c0c1bf"/><path d="M 93.798235 11.713098 L 93.798235 6.4847126 L 106.26607 6.4847126 L 106.26607 11.713098 C 106.26607 12.519849 105.61234 13.174063 104.80511 13.174063 L 95.2592 13.174063 C 94.45245 13.174063 93.798235 12.519849 93.798235 11.713098 Z" fill="#c0c1bf"/><path d="M 100.03225 107.54049 C 102.57308 107.54049 104.63257 105.481 104.63257 102.94017 C 104.63257 100.39934 102.57308 98.33985 100.03225 98.33985 C 97.49142 98.33985 95.43193 100.39934 95.43193 102.94017 C 95.43193 105.481 97.49142 107.54049 100.03225 107.54049 Z" fill="#141313"/><path d="M 100.03225 17.594971 C 102.57308 17.594971 104.63257 15.53548 104.63257 12.994651 C 104.63257 10.453821 102.57308 8.39433 100.03225 8.39433 C 97.49142 8.39433 95.43193 10.453821 95.43193 12.994651 C 95.43193 15.53548 97.49142 17.594971 100.03225 17.594971 Z" fill="#141313"/><path d="M 32.854542 60.998852 C 31.274453 60.998852 29.99411 59.718026 29.99411 58.13842 C 29.99411 56.558332 31.274453 55.277506 32.854542 55.277506 C 34.43463 55.277506 35.714973 56.558332 35.714973 58.13842 C 35.714973 59.718026 34.43463 60.998852 32.854542 60.998852 Z" fill="#fffbd0"/><path d="M 141.92907 62.07344 C 140.34898 62.07344 139.068635 60.792613 139.068635 59.213008 C 139.068635 57.63292 140.34898 56.352092 141.92907 56.352092 C 143.509156 56.352092 144.78998 57.63292 144.78998 59.213008 C 144.78998 60.792613 143.509156 62.07344 141.92907 62.07344 Z" fill="#fcea1b"/><path d="M 146.92376 59.264773 C 145.34367 59.264773 144.063325 57.983947 144.063325 56.404342 C 144.063325 54.824253 145.34367 53.543427 146.92376 53.543427 C 148.503845 53.543427 149.78467 54.824253 149.78467 56.404342 C 149.78467 57.983947 148.503845 59.264773 146.92376 59.264773 Z" fill="#a4262b"/><path d="M 146.92376 64.98607 C 145.34367 64.98607 144.063325 63.705245 144.063325 62.12564 C 144.063325 60.54555 145.34367 59.264725 146.92376 59.264725 C 148.503845 59.264725 149.78467 60.54555 149.78467 62.12564 C 149.78467 63.705245 148.503845 64.98607 146.92376 64.98607 Z" fill="#303478"/><path d="M 151.83143 68.017925 C 150.25134 68.017925 148.970995 66.7371 148.970995 65.157494 C 148.970995 63.577405 150.25134 62.29658 151.83143 62.29658 C 153.41152 62.29658 154.69234 63.577405 154.69234 65.157494 C 154.69234 66.7371 153.41152 68.017925 151.83143 68.017925 Z" fill="#441a66"/><path d="M 151.83143 56.57528 C 150.25134 56.57528 148.970995 55.294455 148.970995 53.71485 C 148.970995 52.13476 150.25134 50.853934 151.83143 50.853934 C 153.41152 50.853934 154.69234 52.13476 154.69234 53.71485 C 154.69234 55.294455 153.41152 56.57528 151.83143 56.57528 Z" fill="#e47823"/><path d="M 156.6513 65.220155 C 155.07121 65.220155 153.79039 63.93933 153.79039 62.359724 C 153.79039 60.779635 155.07121 59.49881 156.6513 59.49881 C 158.23139 59.49881 159.51173 60.779635 159.51173 62.359724 C 159.51173 63.93933 158.23139 65.220155 156.6513 65.220155 Z" fill="#0f4c28"/><path d="M 156.6513 59.666745 C 155.07121 59.666745 153.79039 58.38592 153.79039 56.806314 C 153.79039 55.226225 155.07121 53.945398 156.6513 53.945398 C 158.23139 53.945398 159.51173 55.226225 159.51173 56.806314 C 159.51173 58.38592 158.23139 59.666745 156.6513 59.666745 Z" fill="#523520"/><path d="M 161.61631 62.35948 C 160.03622 62.35948 158.75539 61.078656 158.75539 59.49905 C 158.75539 57.91896 160.03622 56.638136 161.61631 56.638136 C 163.1964 56.638136 164.47674 57.91896 164.47674 59.49905 C 164.47674 61.078656 163.1964 62.35948 161.61631 62.35948 Z" fill="#141313"/><path d="M 151.83152 61.570115 C 150.65481 61.570115 149.69746 60.61228 149.69746 59.43605 C 149.69746 58.259337 150.65481 57.301986 151.83152 57.301986 C 153.00824 57.301986 153.96559 58.259337 153.96559 59.43605 C 153.96559 60.61228 153.00824 61.570115 151.83152 61.570115 Z" fill="#fffbd2"/><path d="M 151.83143 56.57528 C 150.25134 56.57528 148.970995 57.856107 148.970995 59.43571 C 148.970995 61.0158 150.25134 62.296627 151.83143 62.296627 C 153.41152 62.296627 154.69186 61.0158 154.69186 59.43571 C 154.69186 57.856107 153.41152 56.57528 151.83143 56.57528 M 151.83143 58.028014 C 152.60767 58.028014 153.23912 58.659468 153.23912 59.43571 C 153.23912 60.21244 152.60767 60.843894 151.83143 60.843894 C 151.05518 60.843894 150.42373 60.21244 150.42373 59.43571 C 150.42373 58.659468 151.05518 58.028014 151.83143 58.028014" fill="#fcea1b"/></g></g></svg>
