<?xml version="1.0" encoding="UTF-8" standalone="no"?>
<!DOCTYPE svg PUBLIC "-//W3C//DTD SVG 1.1//EN" "http://www.w3.org/Graphics/SVG/1.1/DTD/svg11.dtd">
<svg xmlns="http://www.w3.org/2000/svg" xmlns:xl="http://www.w3.org/1999/xlink" version="1.1" viewBox="0 0 200 116" width="200pt" height="116pt" xmlns:dc="http://purl.org/dc/elements/1.1/"><metadata> Produced by OmniGraffle 6.6 <dc:date>2016-06-25 21:13:00 +0000</dc:date></metadata><defs/><g stroke="none" stroke-opacity="1" stroke-dasharray="none" fill="none" fill-opacity="1"><title>Canvas 1</title><g><title>speed-shooting</title><path d="M 6.0291515 98.91531 L 6.0291515 17.019412 C 6.0291515 11.2012157 10.745692 6.484675 16.563889 6.484675 L 183.43597 6.484675 C 189.25416 6.484675 193.9707 11.2012157 193.9707 17.019412 L 193.9707 98.91531 C 193.9707 104.73351 189.25416 109.45005 183.43597 109.45005 L 16.563889 109.45005 C 10.745692 109.45005 6.0291515 104.73351 6.0291515 98.91531 Z" fill="#3e2716"/><rect x="14.929225" y="15.415934" width="170.2061" height="85.10305" fill="#279f5b"/><path d="M 182.05054 92.623233 L 182.05054 23.311394 L 185.13518 19.921683 L 185.13518 96.012944 Z" fill="#0f4c28"/><path d="M 22.824878 97.46568 L 94.073696 97.46568 L 95.042185 100.550314 L 19.435168 100.550314 Z" fill="#0f4c28"/><path d="M 105.95352 97.46568 L 177.20234 97.46568 L 180.59205 100.550314 L 104.98503 100.550314 Z" fill="#0f4c28"/><path d="M 177.20214 18.500619 L 105.953325 18.500619 L 104.984836 15.415982 L 180.59185 15.415982 Z" fill="#0f4c28"/><path d="M 94.0735 18.500619 L 22.824685 18.500619 L 19.434974 15.415982 L 95.04199 15.415982 Z" fill="#0f4c28"/><path d="M 163.12763 104.203067 L 163.78087 105.34056 L 163.12763 106.47756 L 162.47438 105.34056 Z" fill="#fffffe"/><path d="M 142.25727 104.203067 L 142.91052 105.34056 L 142.25727 106.47756 L 141.60403 105.34056 Z" fill="#fffffe"/><path d="M 121.38687 104.203067 L 122.04012 105.34056 L 121.38687 106.47756 L 120.73363 105.34056 Z" fill="#fffffe"/><path d="M 191.0941 78.83781 L 189.95661 79.491058 L 188.8196 78.83781 L 189.95661 78.184566 Z" fill="#fffffe"/><path d="M 191.0941 57.96741 L 189.95661 58.620656 L 188.8196 57.96741 L 189.95661 57.314165 Z" fill="#fffffe"/><path d="M 191.0941 37.097009 L 189.95661 37.750255 L 188.8196 37.097009 L 189.95661 36.443763 Z" fill="#fffffe"/><path d="M 11.245045 78.83781 L 10.107555 79.491058 L 8.970549 78.83781 L 10.107555 78.184566 Z" fill="#fffffe"/><path d="M 11.245045 57.96741 L 10.107555 58.620656 L 8.970549 57.96741 L 10.107555 57.314165 Z" fill="#fffffe"/><path d="M 11.245045 37.097009 L 10.107555 37.750255 L 8.970549 37.097009 L 10.107555 36.443763 Z" fill="#fffffe"/><path d="M 163.12763 10.152439 L 163.78087 11.289929 L 163.12763 12.426935 L 162.47438 11.289929 Z" fill="#fffffe"/><path d="M 142.25727 10.152439 L 142.91052 11.289929 L 142.25727 12.426935 L 141.60403 11.289929 Z" fill="#fffffe"/><path d="M 121.38687 10.152439 L 122.04012 11.289929 L 121.38687 12.426935 L 120.73363 11.289929 Z" fill="#fffffe"/><path d="M 78.593225 104.203067 L 79.24647 105.34056 L 78.593225 106.47756 L 77.93998 105.34056 Z" fill="#fffffe"/><path d="M 57.722872 104.203067 L 58.376118 105.34056 L 57.722872 106.47756 L 57.069626 105.34056 Z" fill="#fffffe"/><path d="M 36.85247 104.203067 L 37.505716 105.34056 L 36.85247 106.47756 L 36.199225 105.34056 Z" fill="#fffffe"/><path d="M 78.593225 10.152439 L 79.24647 11.289929 L 78.593225 12.426935 L 77.93998 11.289929 Z" fill="#fffffe"/><path d="M 57.722872 10.152439 L 58.376118 11.289929 L 57.722872 12.426935 L 57.069626 11.289929 Z" fill="#fffffe"/><path d="M 36.85247 10.152439 L 37.505716 11.289929 L 36.85247 12.426935 L 36.199225 11.289929 Z" fill="#fffffe"/><path d="M 185.11658 15.397145 L 178.65483 15.416031 L 178.65483 6.4846267 L 183.51325 6.4846267 C 189.28883 6.4846267 193.97099 11.166786 193.97099 16.941885 L 193.97099 21.858903 L 185.13499 21.858903 Z" fill="#c0c1bf"/><path d="M 185.13532 20.016207 C 187.67616 20.016207 189.73565 17.956716 189.73565 15.415885 C 189.73565 12.875055 187.67616 10.8155634 185.13532 10.8155634 C 182.59449 10.8155634 180.535 12.875055 180.535 15.415885 C 180.535 17.956716 182.59449 20.016207 185.13532 20.016207 Z" fill="#141313"/><path d="M 185.08748 100.77539 L 185.0686 94.313634 L 194 94.313634 L 194 99.17206 C 194 104.94764 189.31784 109.6298 183.54226 109.6298 L 178.62572 109.6298 L 178.62572 100.79379 Z" fill="#c0c1bf"/><path d="M 14.883367 15.282718 L 21.345124 15.301604 L 21.345124 6.3701997 L 16.4867 6.3701997 C 10.711117 6.3701997 6.0289578 11.052359 6.0289578 16.827458 L 6.0289578 21.744476 L 14.864966 21.744476 Z" fill="#c0c1bf"/><path d="M 14.912518 100.66101 L 14.931404 94.199255 L 6 94.199255 L 6 99.05768 C 6 104.83326 10.682159 109.51542 16.457742 109.51542 L 21.374276 109.51542 L 21.374276 100.679414 Z" fill="#c0c1bf"/><path d="M 185.13532 105.11926 C 187.67616 105.11926 189.73565 103.059766 189.73565 100.518935 C 189.73565 97.978105 187.67616 95.918613 185.13532 95.918613 C 182.59449 95.918613 180.535 97.978105 180.535 100.518935 C 180.535 103.059766 182.59449 105.11926 185.13532 105.11926 Z" fill="#141313"/><path d="M 14.929176 105.11926 C 17.470007 105.11926 19.529498 103.059766 19.529498 100.518935 C 19.529498 97.978105 17.470007 95.918613 14.929176 95.918613 C 12.388346 95.918613 10.3288545 97.978105 10.3288545 100.518935 C 10.3288545 103.059766 12.388346 105.11926 14.929176 105.11926 Z" fill="#141313"/><path d="M 14.929176 20.016207 C 17.470007 20.016207 19.529498 17.956716 19.529498 15.415885 C 19.529498 12.875055 17.470007 10.8155634 14.929176 10.8155634 C 12.388346 10.8155634 10.3288545 12.875055 10.3288545 15.415885 C 10.3288545 17.956716 12.388346 20.016207 14.929176 20.016207 Z" fill="#141313"/><path d="M 18.013959 23.311587 L 18.013959 92.623427 L 14.929322 96.01314 L 14.929322 19.921876 Z" fill="#0f4c28"/><path d="M 93.79821 109.629655 L 93.79821 104.40127 C 93.79821 103.594517 94.452423 102.9403 95.259175 102.9403 L 104.805085 102.9403 C 105.61232 102.9403 106.26605 103.594517 106.26605 104.40127 L 106.26605 109.629655 Z" fill="#c0c1bf"/><path d="M 93.79821 11.7131104 L 93.79821 6.4847235 L 106.26605 6.4847235 L 106.26605 11.7131104 C 106.26605 12.5198616 105.61232 13.174076 104.805085 13.174076 L 95.259175 13.174076 C 94.452423 13.174076 93.79821 12.5198616 93.79821 11.7131104 Z" fill="#c0c1bf"/><path d="M 100.032275 107.54048 C 102.573105 107.54048 104.632597 105.48099 104.632597 102.94016 C 104.632597 100.399327 102.573105 98.339836 100.032275 98.339836 C 97.491444 98.339836 95.431953 100.399327 95.431953 102.94016 C 95.431953 105.48099 97.491444 107.54048 100.032275 107.54048 Z" fill="#141313"/><path d="M 100.032275 17.594985 C 102.573105 17.594985 104.632597 15.535494 104.632597 12.994663 C 104.632597 10.453833 102.573105 8.3943413 100.032275 8.3943413 C 97.491444 8.3943413 95.431953 10.453833 95.431953 12.994663 C 95.431953 15.535494 97.491444 17.594985 100.032275 17.594985 Z" fill="#141313"/><path d="M 73.81964 60.742712 C 72.23955 60.742712 70.95921 59.461885 70.95921 57.88228 C 70.95921 56.30219 72.23955 55.021364 73.81964 55.021364 C 75.39973 55.021364 76.680072 56.30219 76.680072 57.88228 C 76.680072 59.461885 75.39973 60.742712 73.81964 60.742712 Z" fill="#fcea1b"/><path d="M 63.9904 75.17523 C 62.41031 75.17523 61.129967 73.894403 61.129967 72.314798 C 61.129967 70.73471 62.41031 69.45388 63.9904 69.45388 C 65.57049 69.45388 66.85083 70.73471 66.85083 72.314798 C 66.85083 73.894403 65.57049 75.17523 63.9904 75.17523 Z" fill="#fffbd0"/><path d="M 80.0846 60.742712 C 78.50451 60.742712 77.22417 59.461885 77.22417 57.88228 C 77.22417 56.30219 78.50451 55.021364 80.0846 55.021364 C 81.66469 55.021364 82.945033 56.30219 82.945033 57.88228 C 82.945033 59.461885 81.66469 60.742712 80.0846 60.742712 Z" fill="#a4262b"/><path d="M 86.77444 60.742712 C 85.19435 60.742712 83.914006 59.461885 83.914006 57.88228 C 83.914006 56.30219 85.19435 55.021364 86.77444 55.021364 C 88.354527 55.021364 89.63487 56.30219 89.63487 57.88228 C 89.63487 59.461885 88.354527 60.742712 86.77444 60.742712 Z" fill="#303478"/><path d="M 93.478753 60.742712 C 91.898664 60.742712 90.61832 59.461885 90.61832 57.88228 C 90.61832 56.30219 91.898664 55.021364 93.478753 55.021364 C 95.05884 55.021364 96.339185 56.30219 96.339185 57.88228 C 96.339185 59.461885 95.05884 60.742712 93.478753 60.742712 Z" fill="#441a66"/><path d="M 100.16859 60.742712 C 98.5885 60.742712 97.30816 59.461885 97.30816 57.88228 C 97.30816 56.30219 98.5885 55.021364 100.16859 55.021364 C 101.74868 55.021364 103.02902 56.30219 103.02902 57.88228 C 103.02902 59.461885 101.74868 60.742712 100.16859 60.742712 Z" fill="#e47823"/><path d="M 106.85838 60.742712 C 105.27829 60.742712 103.997946 59.461885 103.997946 57.88228 C 103.997946 56.30219 105.27829 55.021364 106.85838 55.021364 C 108.43847 55.021364 109.719294 56.30219 109.719294 57.88228 C 109.719294 59.461885 108.43847 60.742712 106.85838 60.742712 Z" fill="#0f4c28"/><path d="M 113.49509 60.742712 C 111.915 60.742712 110.63466 59.461885 110.63466 57.88228 C 110.63466 56.30219 111.915 55.021364 113.49509 55.021364 C 115.07518 55.021364 116.355525 56.30219 116.355525 57.88228 C 116.355525 59.461885 115.07518 60.742712 113.49509 60.742712 Z" fill="#523520"/><path d="M 120.18488 60.742712 C 118.60479 60.742712 117.32445 59.461885 117.32445 57.88228 C 117.32445 56.30219 118.60479 55.021364 120.18488 55.021364 C 121.76497 55.021364 123.0458 56.30219 123.0458 57.88228 C 123.0458 59.461885 121.76497 60.742712 120.18488 60.742712 Z" fill="#141313"/><path d="M 126.87491 60.016103 C 125.69771 60.016103 124.74036 59.058268 124.74036 57.882038 C 124.74036 56.705324 125.69771 55.747973 126.87491 55.747973 C 128.051625 55.747973 129.00898 56.705324 129.00898 57.882038 C 129.00898 59.058268 128.051625 60.016103 126.87491 60.016103 Z" fill="#fffbd2"/><path d="M 126.87472 55.021364 C 125.29463 55.021364 124.014286 56.30219 124.014286 57.88228 C 124.014286 59.461885 125.29463 60.742712 126.87472 60.742712 C 128.45481 60.742712 129.73563 59.461885 129.73563 57.88228 C 129.73563 56.30219 128.45481 55.021364 126.87472 55.021364 M 126.87472 56.474097 C 127.65096 56.474097 128.2829 57.105552 128.2829 57.88228 C 128.2829 58.658524 127.65096 59.28998 126.87472 59.28998 C 126.09847 59.28998 125.46702 58.658524 125.46702 57.88228 C 125.46702 57.105552 126.09847 56.474097 126.87472 56.474097" fill="#fcea1b"/><line x1="70.60852" y1="61.840252" x2="66.339905" y2="68.711196" stroke="#fffbd0" stroke-linecap="round" stroke-linejoin="round" stroke-width=".4842444"/><path d="M 81.43366 53.79671 C 82.06269 53.45096 98.46889 19.166939 98.46889 19.166939 C 98.46889 19.166939 76.097284 53.79671 76.097284 53.79671" stroke="#fffbd0" stroke-linecap="round" stroke-linejoin="round" stroke-width=".4842444"/><line x1="73.81964" y1="68.711002" x2="77.455348" y2="61.8173" stroke="#fffbd0" stroke-linecap="round" stroke-linejoin="round" stroke-width=".4842444"/></g></g></svg>
