<?xml version="1.0" encoding="UTF-8" standalone="no"?>
<!DOCTYPE svg PUBLIC "-//W3C//DTD SVG 1.1//EN" "http://www.w3.org/Graphics/SVG/1.1/DTD/svg11.dtd">
<svg xmlns="http://www.w3.org/2000/svg" xmlns:xl="http://www.w3.org/1999/xlink" version="1.1" viewBox="0 0 200 116" width="200pt" height="116pt" xmlns:dc="http://purl.org/dc/elements/1.1/"><metadata> Produced by OmniGraffle 6.6 <dc:date>2016-06-25 21:11:03 +0000</dc:date></metadata><defs/><g stroke="none" stroke-opacity="1" stroke-dasharray="none" fill="none" fill-opacity="1"><title>Canvas 1</title><g><title>3 ball</title><path d="M 6.0291515 98.91526 L 6.0291515 17.019364 C 6.0291515 11.201168 10.745692 6.484627 16.563889 6.484627 L 183.43597 6.484627 C 189.25416 6.484627 193.9707 11.201168 193.9707 17.019364 L 193.9707 98.91526 C 193.9707 104.73346 189.25416 109.45 183.43597 109.45 L 16.563889 109.45 C 10.745692 109.45 6.0291515 104.73346 6.0291515 98.91526 Z" fill="#3e2716"/><rect x="14.929225" y="15.416079" width="170.2061" height="85.10305" fill="#279f5b"/><path d="M 182.05054 92.623185 L 182.05054 23.311346 L 185.13518 19.921635 L 185.13518 96.012895 Z" fill="#0f4c28"/><path d="M 22.824878 97.46563 L 94.073696 97.46563 L 95.042185 100.550266 L 19.435168 100.550266 Z" fill="#0f4c28"/><path d="M 105.95352 97.46563 L 177.20234 97.46563 L 180.59205 100.550266 L 104.98503 100.550266 Z" fill="#0f4c28"/><path d="M 177.20214 18.50062 L 105.953325 18.50062 L 104.984836 15.415983 L 180.59185 15.415983 Z" fill="#0f4c28"/><path d="M 94.0735 18.50062 L 22.824685 18.50062 L 19.434974 15.415983 L 95.04199 15.415983 Z" fill="#0f4c28"/><path d="M 163.12763 104.203066 L 163.78087 105.340557 L 163.12763 106.47756 L 162.47438 105.340557 Z" fill="#fffffe"/><path d="M 142.25727 104.203066 L 142.91052 105.340557 L 142.25727 106.47756 L 141.60403 105.340557 Z" fill="#fffffe"/><path d="M 121.38687 104.203066 L 122.04012 105.340557 L 121.38687 106.47756 L 120.73363 105.340557 Z" fill="#fffffe"/><path d="M 191.0941 78.837763 L 189.95661 79.49101 L 188.8196 78.837763 L 189.95661 78.184518 Z" fill="#fffffe"/><path d="M 191.0941 57.96741 L 189.95661 58.620656 L 188.8196 57.96741 L 189.95661 57.314165 Z" fill="#fffffe"/><path d="M 191.0941 37.09701 L 189.95661 37.750255 L 188.8196 37.09701 L 189.95661 36.443763 Z" fill="#fffffe"/><path d="M 11.245045 78.837763 L 10.107555 79.49101 L 8.970549 78.837763 L 10.107555 78.184518 Z" fill="#fffffe"/><path d="M 11.245045 57.96741 L 10.107555 58.620656 L 8.970549 57.96741 L 10.107555 57.314165 Z" fill="#fffffe"/><path d="M 11.245045 37.09701 L 10.107555 37.750255 L 8.970549 37.09701 L 10.107555 36.443763 Z" fill="#fffffe"/><path d="M 163.12763 10.1524396 L 163.78087 11.28993 L 163.12763 12.4269355 L 162.47438 11.28993 Z" fill="#fffffe"/><path d="M 142.25727 10.1524396 L 142.91052 11.28993 L 142.25727 12.4269355 L 141.60403 11.28993 Z" fill="#fffffe"/><path d="M 121.38687 10.1524396 L 122.04012 11.28993 L 121.38687 12.4269355 L 120.73363 11.28993 Z" fill="#fffffe"/><path d="M 78.593225 104.203066 L 79.24647 105.340557 L 78.593225 106.47756 L 77.93998 105.340557 Z" fill="#fffffe"/><path d="M 57.722872 104.203066 L 58.376118 105.340557 L 57.722872 106.47756 L 57.069626 105.340557 Z" fill="#fffffe"/><path d="M 36.85247 104.203066 L 37.505716 105.340557 L 36.85247 106.47756 L 36.199225 105.340557 Z" fill="#fffffe"/><path d="M 78.593225 10.1524396 L 79.24647 11.28993 L 78.593225 12.4269355 L 77.93998 11.28993 Z" fill="#fffffe"/><path d="M 57.722872 10.1524396 L 58.376118 11.28993 L 57.722872 12.4269355 L 57.069626 11.28993 Z" fill="#fffffe"/><path d="M 36.85247 10.1524396 L 37.505716 11.28993 L 36.85247 12.4269355 L 36.199225 11.28993 Z" fill="#fffffe"/><path d="M 185.11658 15.397097 L 178.65483 15.415983 L 178.65483 6.4845787 L 183.51325 6.4845787 C 189.28883 6.4845787 193.97099 11.166738 193.97099 16.942321 L 193.97099 21.858854 L 185.13499 21.858854 Z" fill="#c0c1bf"/><path d="M 185.13532 20.016159 C 187.67616 20.016159 189.73565 17.956668 189.73565 15.415837 C 189.73565 12.875007 187.67616 10.8155154 185.13532 10.8155154 C 182.59449 10.8155154 180.535 12.875007 180.535 15.415837 C 180.535 17.956668 182.59449 20.016159 185.13532 20.016159 Z" fill="#141313"/><path d="M 185.08748 100.77539 L 185.0686 94.313633 L 194 94.313633 L 194 99.17206 C 194 104.94764 189.31784 109.6298 183.54226 109.6298 L 178.62572 109.6298 L 178.62572 100.79379 Z" fill="#c0c1bf"/><path d="M 14.883367 15.2827185 L 21.345124 15.301604 L 21.345124 6.3702 L 16.4867 6.3702 C 10.711117 6.3702 6.0289578 11.0523594 6.0289578 16.827942 L 6.0289578 21.744476 L 14.864966 21.744476 Z" fill="#c0c1bf"/><path d="M 14.912518 100.660964 L 14.931404 94.199206 L 6 94.199206 L 6 99.05763 C 6 104.833214 10.682159 109.51537 16.457742 109.51537 L 21.374276 109.51537 L 21.374276 100.679365 Z" fill="#c0c1bf"/><path d="M 185.13532 105.119257 C 187.67616 105.119257 189.73565 103.059765 189.73565 100.518935 C 189.73565 97.978105 187.67616 95.918613 185.13532 95.918613 C 182.59449 95.918613 180.535 97.978105 180.535 100.518935 C 180.535 103.059765 182.59449 105.119257 185.13532 105.119257 Z" fill="#141313"/><path d="M 14.929176 105.119257 C 17.470007 105.119257 19.529498 103.059765 19.529498 100.518935 C 19.529498 97.978105 17.470007 95.918613 14.929176 95.918613 C 12.388346 95.918613 10.3288545 97.978105 10.3288545 100.518935 C 10.3288545 103.059765 12.388346 105.119257 14.929176 105.119257 Z" fill="#141313"/><path d="M 14.929176 20.016159 C 17.470007 20.016159 19.529498 17.956668 19.529498 15.415837 C 19.529498 12.875007 17.470007 10.8155154 14.929176 10.8155154 C 12.388346 10.8155154 10.3288545 12.875007 10.3288545 15.415837 C 10.3288545 17.956668 12.388346 20.016159 14.929176 20.016159 Z" fill="#141313"/><path d="M 18.013959 23.311588 L 18.013959 92.623427 L 14.929322 96.01314 L 14.929322 19.921877 Z" fill="#0f4c28"/><path d="M 93.79821 109.629655 L 93.79821 104.40127 C 93.79821 103.594516 94.452423 102.9403 95.259175 102.9403 L 104.805085 102.9403 C 105.61232 102.9403 106.26605 103.594516 106.26605 104.40127 L 106.26605 109.629655 Z" fill="#c0c1bf"/><path d="M 93.79821 11.7130624 L 93.79821 6.4846756 L 106.26605 6.4846756 L 106.26605 11.7130624 C 106.26605 12.5198136 105.61232 13.174028 104.805085 13.174028 L 95.259175 13.174028 C 94.452423 13.174028 93.79821 12.5198136 93.79821 11.7130624 Z" fill="#c0c1bf"/><path d="M 100.032275 107.54048 C 102.573105 107.54048 104.632597 105.48099 104.632597 102.94016 C 104.632597 100.399327 102.573105 98.339835 100.032275 98.339835 C 97.491444 98.339835 95.431953 100.399327 95.431953 102.94016 C 95.431953 105.48099 97.491444 107.54048 100.032275 107.54048 Z" fill="#141313"/><path d="M 100.032275 17.594937 C 102.573105 17.594937 104.632597 15.535446 104.632597 12.994615 C 104.632597 10.453785 102.573105 8.3942934 100.032275 8.3942934 C 97.491444 8.3942934 95.431953 10.453785 95.431953 12.994615 C 95.431953 15.535446 97.491444 17.594937 100.032275 17.594937 Z" fill="#141313"/><path d="M 144.48344 60.828084 C 142.90335 60.828084 141.62301 59.547258 141.62301 57.967652 C 141.62301 56.387563 142.90335 55.106737 144.48344 55.106737 C 146.06353 55.106737 147.34387 56.387563 147.34387 57.967652 C 147.34387 59.547258 146.06353 60.828084 144.48344 60.828084 Z" fill="#fcea1b"/><path d="M 36.85247 60.828084 C 35.27238 60.828084 33.992039 59.547258 33.992039 57.967652 C 33.992039 56.387563 35.27238 55.106737 36.85247 55.106737 C 38.43256 55.106737 39.712902 56.387563 39.712902 57.967652 C 39.712902 59.547258 38.43256 60.828084 36.85247 60.828084 Z" fill="#fffbd0"/><path d="M 149.445785 63.693213 C 147.8657 63.693213 146.58487 62.412387 146.58487 60.83278 C 146.58487 59.252692 147.8657 57.971865 149.445785 57.971865 C 151.025875 57.971865 152.30622 59.252692 152.30622 60.83278 C 152.30622 62.412387 151.025875 63.693213 149.445785 63.693213 Z" fill="#a4262b"/><path d="M 149.445785 57.962907 C 147.8657 57.962907 146.58487 56.68208 146.58487 55.102475 C 146.58487 53.522386 147.8657 52.24156 149.445785 52.24156 C 151.025875 52.24156 152.30622 53.522386 152.30622 55.102475 C 152.30622 56.68208 151.025875 57.962907 149.445785 57.962907 Z" fill="#303478"/></g></g></svg>
