<?xml version="1.0" encoding="UTF-8" standalone="no"?>
<!DOCTYPE svg PUBLIC "-//W3C//DTD SVG 1.1//EN" "http://www.w3.org/Graphics/SVG/1.1/DTD/svg11.dtd">
<svg xmlns="http://www.w3.org/2000/svg" xmlns:xl="http://www.w3.org/1999/xlink" version="1.1" viewBox="0 0 200 116" width="200pt" height="116pt" xmlns:dc="http://purl.org/dc/elements/1.1/"><metadata> Produced by OmniGraffle 6.6 <dc:date>2016-06-25 21:10:11 +0000</dc:date></metadata><defs/><g stroke="none" stroke-opacity="1" stroke-dasharray="none" fill="none" fill-opacity="1"><title>Canvas 1</title><g><title>3 balls, 1 shot</title><path d="M 161.99034 109.73533 L 163.12783 109.08209 L 164.26483 109.73533 L 163.12783 110.38858 Z" fill="#fffffe"/><path d="M 35.715166 109.73533 L 36.852656 109.08209 L 37.989662 109.73533 L 36.852656 110.38858 Z" fill="#fffffe"/><path d="M 6.0292 98.15652 L 6.0292 16.260632 C 6.0292 10.442437 10.745739 5.725897 16.563934 5.725897 L 183.43597 5.725897 C 189.25416 5.725897 193.9707 10.442437 193.9707 16.260632 L 193.9707 98.15652 C 193.9707 103.974714 189.25416 108.691254 183.43597 108.691254 L 16.563934 108.691254 C 10.745739 108.691254 6.0292 103.974714 6.0292 98.15652 Z" fill="#3e2716"/><rect x="14.929319" y="14.657299" width="170.20606" height="85.103036" fill="#279f5b"/><path d="M 182.05055 91.86444 L 182.05055 22.552613 L 185.13518 19.162902 L 185.13518 95.25415 Z" fill="#0f4c28"/><path d="M 22.824923 96.706884 L 94.07372 96.706884 L 95.04221 99.79152 L 19.435212 99.79152 Z" fill="#0f4c28"/><path d="M 105.95354 96.706884 L 177.20234 96.706884 L 180.59205 99.79152 L 104.98505 99.79152 Z" fill="#0f4c28"/><path d="M 177.20215 17.741887 L 105.95335 17.741887 L 104.98486 14.657251 L 180.59186 14.657251 Z" fill="#0f4c28"/><path d="M 94.07353 17.741887 L 22.824729 17.741887 L 19.435019 14.657251 L 95.042016 14.657251 Z" fill="#0f4c28"/><path d="M 163.127635 103.44432 L 163.78088 104.58181 L 163.127635 105.718817 L 162.47439 104.58181 Z" fill="#fffffe"/><path d="M 142.25729 103.44432 L 142.91053 104.58181 L 142.25729 105.718817 L 141.60404 104.58181 Z" fill="#fffffe"/><path d="M 121.38689 103.44432 L 122.04014 104.58181 L 121.38689 105.718817 L 120.733646 104.58181 Z" fill="#fffffe"/><path d="M 191.09405 78.07902 L 189.95656 78.732267 L 188.81955 78.07902 L 189.95656 77.425776 Z" fill="#fffffe"/><path d="M 191.09405 57.208624 L 189.95656 57.86187 L 188.81955 57.208624 L 189.95656 56.555378 Z" fill="#fffffe"/><path d="M 191.09405 36.338274 L 189.95656 36.99152 L 188.81955 36.338274 L 189.95656 35.685028 Z" fill="#fffffe"/><path d="M 11.245092 78.07902 L 10.107602 78.732267 L 8.9705966 78.07902 L 10.107602 77.425776 Z" fill="#fffffe"/><path d="M 11.245092 57.208624 L 10.107602 57.86187 L 8.9705966 57.208624 L 10.107602 56.555378 Z" fill="#fffffe"/><path d="M 11.245092 36.338274 L 10.107602 36.99152 L 8.9705966 36.338274 L 10.107602 35.685028 Z" fill="#fffffe"/><path d="M 163.127635 9.393709 L 163.78088 10.531199 L 163.127635 11.6682044 L 162.47439 10.531199 Z" fill="#fffffe"/><path d="M 142.25729 9.393709 L 142.91053 10.531199 L 142.25729 11.6682044 L 141.60404 10.531199 Z" fill="#fffffe"/><path d="M 121.38689 9.393709 L 122.04014 10.531199 L 121.38689 11.6682044 L 120.733646 10.531199 Z" fill="#fffffe"/><path d="M 78.593255 103.44427 L 79.2465 104.58176 L 78.593255 105.71877 L 77.94001 104.58176 Z" fill="#fffffe"/><path d="M 57.72286 103.44427 L 58.376104 104.58176 L 57.72286 105.71877 L 57.069613 104.58176 Z" fill="#fffffe"/><path d="M 36.85251 103.44427 L 37.505757 104.58176 L 36.85251 105.71877 L 36.199265 104.58176 Z" fill="#fffffe"/><path d="M 78.593255 9.393709 L 79.2465 10.531199 L 78.593255 11.6682044 L 77.94001 10.531199 Z" fill="#fffffe"/><path d="M 57.72286 9.393709 L 58.376104 10.531199 L 57.72286 11.6682044 L 57.069613 10.531199 Z" fill="#fffffe"/><path d="M 36.85251 9.393709 L 37.505757 10.531199 L 36.85251 11.6682044 L 36.199265 10.531199 Z" fill="#fffffe"/><path d="M 185.11659 14.638365 L 178.65483 14.657251 L 178.65483 5.7258485 L 183.51325 5.7258485 C 189.28884 5.7258485 193.97099 10.408007 193.97099 16.183105 L 193.97099 21.100122 L 185.13499 21.100122 Z" fill="#c0c1bf"/><path d="M 185.13533 19.257427 C 187.67616 19.257427 189.73565 17.197936 189.73565 14.657106 C 189.73565 12.116276 187.67616 10.0567845 185.13533 10.0567845 C 182.5945 10.0567845 180.53501 12.116276 180.53501 14.657106 C 180.53501 17.197936 182.5945 19.257427 185.13533 19.257427 Z" fill="#141313"/><path d="M 185.08748 100.016646 L 185.0686 93.55489 L 194 93.55489 L 194 98.413313 C 194 104.188895 189.31784 108.871054 183.54226 108.871054 L 178.62573 108.871054 L 178.62573 100.03505 Z" fill="#c0c1bf"/><path d="M 14.883413 14.5239385 L 21.345169 14.542824 L 21.345169 5.6114215 L 16.486746 5.6114215 C 10.711164 5.6114215 6.0290062 10.29358 6.0290062 16.068678 L 6.0290062 20.985695 L 14.865012 20.985695 Z" fill="#c0c1bf"/><path d="M 14.912516 99.90222 L 14.931402 93.44046 L 6 93.44046 L 6 98.298886 C 6 104.07447 10.682158 108.756627 16.45774 108.756627 L 21.374272 108.756627 L 21.374272 99.92062 Z" fill="#c0c1bf"/><path d="M 185.13533 104.36046 C 187.67616 104.36046 189.73565 102.30097 189.73565 99.76014 C 189.73565 97.21931 187.67616 95.15982 185.13533 95.15982 C 182.5945 95.15982 180.53501 97.21931 180.53501 99.76014 C 180.53501 102.30097 182.5945 104.36046 185.13533 104.36046 Z" fill="#141313"/><path d="M 14.9292225 104.36046 C 17.470052 104.36046 19.529543 102.30097 19.529543 99.76014 C 19.529543 97.21931 17.470052 95.15982 14.9292225 95.15982 C 12.388393 95.15982 10.328902 97.21931 10.328902 99.76014 C 10.328902 102.30097 12.388393 104.36046 14.9292225 104.36046 Z" fill="#141313"/><path d="M 14.9292225 19.257427 C 17.470052 19.257427 19.529543 17.197936 19.529543 14.657106 C 19.529543 12.116276 17.470052 10.0567845 14.9292225 10.0567845 C 12.388393 10.0567845 10.328902 12.116276 10.328902 14.657106 C 10.328902 17.197936 12.388393 19.257427 14.9292225 19.257427 Z" fill="#141313"/><path d="M 18.014004 22.552806 L 18.014004 91.864635 L 14.929368 95.254345 L 14.929368 19.163096 Z" fill="#0f4c28"/><path d="M 93.798235 108.87086 L 93.798235 103.642474 C 93.798235 102.83572 94.45245 102.18151 95.2592 102.18151 L 104.80511 102.18151 C 105.61234 102.18151 106.26607 102.83572 106.26607 103.642474 L 106.26607 108.87086 Z" fill="#c0c1bf"/><path d="M 93.798235 10.9543314 L 93.798235 5.7259453 L 106.26607 5.7259453 L 106.26607 10.9543314 C 106.26607 11.7610825 105.61234 12.4152965 104.80511 12.4152965 L 95.2592 12.4152965 C 94.45245 12.4152965 93.798235 11.7610825 93.798235 10.9543314 Z" fill="#c0c1bf"/><path d="M 100.03225 106.781685 C 102.57308 106.781685 104.63257 104.722193 104.63257 102.181363 C 104.63257 99.640533 102.57308 97.58104 100.03225 97.58104 C 97.49142 97.58104 95.43193 99.640533 95.43193 102.181363 C 95.43193 104.722193 97.49142 106.781685 100.03225 106.781685 Z" fill="#141313"/><path d="M 100.03225 16.836205 C 102.57308 16.836205 104.63257 14.776714 104.63257 12.235884 C 104.63257 9.695054 102.57308 7.635563 100.03225 7.635563 C 97.49142 7.635563 95.43193 9.695054 95.43193 12.235884 C 95.43193 14.776714 97.49142 16.836205 100.03225 16.836205 Z" fill="#141313"/><path d="M 79.73055 86.602933 C 78.15046 86.602933 76.87012 85.322106 76.87012 83.7425 C 76.87012 82.16241 78.15046 80.881586 79.73055 80.881586 C 81.31064 80.881586 82.59098 82.16241 82.59098 83.7425 C 82.59098 85.322106 81.31064 86.602933 79.73055 86.602933 Z" fill="#fffbd0"/><path d="M 99.77192 96.294163 C 98.19183 96.294163 96.91149 95.013337 96.91149 93.43373 C 96.91149 91.85364 98.19183 90.572816 99.77192 90.572816 C 101.35201 90.572816 102.63235 91.85364 102.63235 93.43373 C 102.63235 95.013337 101.35201 96.294163 99.77192 96.294163 Z" fill="#fcea1b"/><path d="M 178.65488 23.84632 C 177.07479 23.84632 175.79445 22.565494 175.79445 20.985404 C 175.79445 19.405799 177.07479 18.124973 178.65488 18.124973 C 180.23497 18.124973 181.51531 19.405799 181.51531 20.985404 C 181.51531 22.565494 180.23497 23.84632 178.65488 23.84632 Z" fill="#a4262b"/><path d="M 105.49327 96.294163 C 103.91318 96.294163 102.632836 95.013337 102.632836 93.43373 C 102.632836 91.85364 103.91318 90.572816 105.49327 90.572816 C 107.073356 90.572816 108.3537 91.85364 108.3537 93.43373 C 108.3537 95.013337 107.073356 96.294163 105.49327 96.294163 Z" fill="#303478"/><path d="M 83.970303 85.626163 L 96.010553 90.57272 L 180.59205 44.536095 L 150.48465 19.257572 L 19.435067 67.90621 L 51.23781 94.191477 L 175.26682 23.614803" stroke="#fffbd0" stroke-linecap="round" stroke-linejoin="round" stroke-width=".99857064"/><line x1="110.50815" y1="93.43349" x2="176.05158" y2="93.43349" stroke="#303478" stroke-linecap="butt" stroke-linejoin="miter" stroke-width=".99857064"/><path d="M 175.47596 94.277624 L 178.62597 93.433586 L 175.47596 92.58955 Z" fill="#303478"/></g></g></svg>
