<?xml version="1.0" encoding="UTF-8" standalone="no"?>
<!DOCTYPE svg PUBLIC "-//W3C//DTD SVG 1.1//EN" "http://www.w3.org/Graphics/SVG/1.1/DTD/svg11.dtd">
<svg xmlns="http://www.w3.org/2000/svg" xmlns:xl="http://www.w3.org/1999/xlink" version="1.1" viewBox="0 0 200 116" width="200pt" height="116pt" xmlns:dc="http://purl.org/dc/elements/1.1/"><metadata> Produced by OmniGraffle 6.6 <dc:date>2016-06-25 21:08:29 +0000</dc:date></metadata><defs/><g stroke="none" stroke-opacity="1" stroke-dasharray="none" fill="none" fill-opacity="1"><title>Canvas 1</title><g><title>Layer 1</title><path d="M 162.07908 110.276524 L 163.2182 109.622344 L 164.35683 110.276524 L 163.2182 110.930705 Z" fill="#fffffe"/><path d="M 35.623143 110.276524 L 36.76226 109.622344 L 37.900894 110.276524 L 36.76226 110.930705 Z" fill="#fffffe"/><path d="M 162.07908 19.027832 L 163.2182 18.373652 L 164.35683 19.027832 L 163.2182 19.682013 Z" fill="#fffffe"/><path d="M 35.623143 19.027832 L 36.76226 18.373652 L 37.900894 19.027832 L 36.76226 19.682013 Z" fill="#fffffe"/><path d="M 5.8946325 97.74686 L 5.8946325 15.733749 C 5.8946325 9.907225 10.6179236 5.1839342 16.444447 5.1839342 L 183.55536 5.1839342 C 189.38188 5.1839342 194.10517 9.907225 194.10517 15.733749 L 194.10517 97.74686 C 194.10517 103.573385 189.38188 108.296676 183.55536 108.296676 L 16.444447 108.296676 C 10.6179236 108.296676 5.8946325 103.573385 5.8946325 97.74686 Z" fill="#3e2716"/><rect x="14.807638" y="14.128121" width="170.44971" height="85.224853" fill="#279f5b"/><path d="M 182.168 91.44578 L 182.168 22.034736 L 185.25705 18.640173 L 185.25705 94.84034 Z" fill="#0f4c28"/><path d="M 22.714447 96.29515 L 94.06524 96.29515 L 95.035113 99.384204 L 19.319884 99.384204 Z" fill="#0f4c28"/><path d="M 105.962064 96.29515 L 177.31286 96.29515 L 180.70742 99.384204 L 104.99219 99.384204 Z" fill="#0f4c28"/><path d="M 177.31261 17.217076 L 105.96182 17.217076 L 104.991946 14.128024 L 180.70718 14.128024 Z" fill="#0f4c28"/><path d="M 94.065044 17.217076 L 22.714253 17.217076 L 19.31969 14.128024 L 95.03492 14.128024 Z" fill="#0f4c28"/><path d="M 163.218 103.042184 L 163.87218 104.1813 L 163.218 105.319936 L 162.56382 104.1813 Z" fill="#fffffe"/><path d="M 142.31773 103.042184 L 142.97191 104.1813 L 142.31773 105.319936 L 141.66355 104.1813 Z" fill="#fffffe"/><path d="M 121.417506 103.042184 L 122.07169 104.1813 L 121.417506 105.319936 L 120.763326 104.1813 Z" fill="#fffffe"/><path d="M 191.22445 77.640626 L 190.08533 78.294806 L 188.9467 77.640626 L 190.08533 76.986445 Z" fill="#fffffe"/><path d="M 191.22445 56.740354 L 190.08533 57.394534 L 188.9467 56.740354 L 190.08533 56.086173 Z" fill="#fffffe"/><path d="M 191.22445 35.840082 L 190.08533 36.494262 L 188.9467 35.840082 L 190.08533 35.1859 Z" fill="#fffffe"/><path d="M 11.1180396 77.640626 L 9.9789214 78.294806 L 8.840288 77.640626 L 9.9789214 76.986445 Z" fill="#fffffe"/><path d="M 11.1180396 56.740354 L 9.9789214 57.394534 L 8.840288 56.740354 L 9.9789214 56.086173 Z" fill="#fffffe"/><path d="M 11.1180396 35.840082 L 9.9789214 36.494262 L 8.840288 35.840082 L 9.9789214 35.1859 Z" fill="#fffffe"/><path d="M 163.218 8.8569477 L 163.87218 9.996066 L 163.218 11.134699 L 162.56382 9.996066 Z" fill="#fffffe"/><path d="M 142.31773 8.8569477 L 142.97191 9.996066 L 142.31773 11.134699 L 141.66355 9.996066 Z" fill="#fffffe"/><path d="M 121.417506 8.8569477 L 122.07169 9.996066 L 121.417506 11.134699 L 120.763326 9.996066 Z" fill="#fffffe"/><path d="M 78.56261 103.042184 L 79.21679 104.1813 L 78.56261 105.319936 L 77.90843 104.1813 Z" fill="#fffffe"/><path d="M 57.66234 103.042184 L 58.31652 104.1813 L 57.66234 105.319936 L 57.00816 104.1813 Z" fill="#fffffe"/><path d="M 36.762067 103.042184 L 37.416248 104.1813 L 36.762067 105.319936 L 36.107886 104.1813 Z" fill="#fffffe"/><path d="M 78.56261 8.8569477 L 79.21679 9.996066 L 78.56261 11.134699 L 77.90843 9.996066 Z" fill="#fffffe"/><path d="M 57.66234 8.8569477 L 58.31652 9.996066 L 57.66234 11.134699 L 57.00816 9.996066 Z" fill="#fffffe"/><path d="M 36.762067 8.8569477 L 37.416248 9.996066 L 36.762067 11.134699 L 36.107886 9.996066 Z" fill="#fffffe"/><path d="M 185.23843 14.10916 L 178.76743 14.128073 L 178.76743 5.1838857 L 183.6328 5.1838857 C 189.41665 5.1838857 194.10551 9.872746 194.10551 15.656596 L 194.10551 20.580166 L 185.25686 20.580166 Z" fill="#c0c1bf"/><path d="M 185.2572 18.734833 C 187.80167 18.734833 189.8641 16.672394 189.8641 14.127927 C 189.8641 11.58346 187.80167 9.521021 185.2572 9.521021 C 182.71273 9.521021 180.65029 11.58346 180.65029 14.127927 C 180.65029 16.672394 182.71273 18.734833 185.2572 18.734833 Z" fill="#141313"/><path d="M 185.20929 99.6096 L 185.19037 93.138597 L 194.13456 93.138597 L 194.13456 98.003975 C 194.13456 103.787824 189.4457 108.476685 183.66185 108.476685 L 178.73828 108.476685 L 178.73828 99.62803 Z" fill="#c0c1bf"/><path d="M 14.761569 13.994569 L 21.232575 14.013482 L 21.232575 5.069295 L 16.367197 5.069295 C 10.5833475 5.069295 5.894487 9.7581555 5.894487 15.54152 L 5.894487 20.465575 L 14.743141 20.465575 Z" fill="#c0c1bf"/><path d="M 14.790714 99.49506 L 14.809626 93.024055 L 5.8654393 93.024055 L 5.8654393 97.88943 C 5.8654393 103.67328 10.5543 108.36214 16.338149 108.36214 L 21.26172 108.36214 L 21.26172 99.51349 Z" fill="#c0c1bf"/><path d="M 185.2572 103.959686 C 187.80167 103.959686 189.8641 101.89725 189.8641 99.35278 C 189.8641 96.808313 187.80167 94.745874 185.2572 94.745874 C 182.71273 94.745874 180.65029 96.808313 180.65029 99.35278 C 180.65029 101.89725 182.71273 103.959686 185.2572 103.959686 Z" fill="#141313"/><path d="M 14.807444 103.959686 C 17.351911 103.959686 19.41435 101.89725 19.41435 99.35278 C 19.41435 96.808313 17.351911 94.745874 14.807444 94.745874 C 12.262977 94.745874 10.200538 96.808313 10.200538 99.35278 C 10.200538 101.89725 12.262977 103.959686 14.807444 103.959686 Z" fill="#141313"/><path d="M 14.807444 18.734833 C 17.351911 18.734833 19.41435 16.672394 19.41435 14.127927 C 19.41435 11.58346 17.351911 9.521021 14.807444 9.521021 C 12.262977 9.521021 10.200538 11.58346 10.200538 14.127927 C 10.200538 16.672394 12.262977 18.734833 14.807444 18.734833 Z" fill="#141313"/><path d="M 17.896641 22.03493 L 17.896641 91.44597 L 14.807589 94.840534 L 14.807589 18.640367 Z" fill="#0f4c28"/><path d="M 93.789357 108.47654 L 93.789357 103.24067 C 93.789357 102.432763 94.44451 101.77761 95.252414 101.77761 L 104.811986 101.77761 C 105.62038 101.77761 106.27504 102.432763 106.27504 103.24067 L 106.27504 108.47654 Z" fill="#c0c1bf"/><path d="M 93.789357 10.419853 L 93.789357 5.1839827 L 106.27504 5.1839827 L 106.27504 10.419853 C 106.27504 11.2277585 105.62038 11.882909 104.811986 11.882909 L 95.252414 11.882909 C 94.44451 11.882909 93.789357 11.2277585 93.789357 10.419853 Z" fill="#c0c1bf"/><path d="M 100.032297 106.384374 C 102.576764 106.384374 104.6392 104.321934 104.6392 101.77747 C 104.6392 99.233 102.576764 97.17056 100.032297 97.17056 C 97.48783 97.17056 95.42539 99.233 95.42539 101.77747 C 95.42539 104.321934 97.48783 106.384374 100.032297 106.384374 Z" fill="#141313"/><path d="M 100.032297 16.310146 C 102.576764 16.310146 104.6392 14.247707 104.6392 11.70324 C 104.6392 9.158773 102.576764 7.0963337 100.032297 7.0963337 C 97.48783 7.0963337 95.42539 9.158773 95.42539 11.70324 C 95.42539 14.247707 97.48783 16.310146 100.032297 16.310146 Z" fill="#141313"/><path d="M 177.16155 24.906487 C 175.5792 24.906487 174.29703 23.623827 174.29703 22.041961 C 174.29703 20.45961 175.5792 19.176951 177.16155 19.176951 C 178.74391 19.176951 180.02657 20.45961 180.02657 22.041961 C 180.02657 23.623827 178.74391 24.906487 177.16155 24.906487 Z" fill="#141313"/><path d="M 29.772178 27.771255 C 28.189827 27.771255 26.907653 26.488596 26.907653 24.90673 C 26.907653 23.324379 28.189827 22.041719 29.772178 22.041719 C 31.35453 22.041719 32.636704 23.324379 32.636704 24.90673 C 32.636704 26.488596 31.35453 27.771255 29.772178 27.771255 Z" fill="#fffbd0"/><path d="M 161.76513 24.657229 C 160.58625 24.657229 159.627525 23.698508 159.627525 22.52011 C 159.627525 21.341227 160.58625 20.382505 161.76513 20.382505 C 162.94353 20.382505 163.90225 21.341227 163.90225 22.52011 C 163.90225 23.698508 162.94353 24.657229 161.76513 24.657229 Z" fill="#fffffe"/><path d="M 161.76489 19.655196 C 160.18254 19.655196 158.90036 20.937856 158.90036 22.519722 C 158.90036 24.102073 160.18254 25.384732 161.76489 25.384732 C 163.34724 25.384732 164.6299 24.102073 164.6299 22.519722 C 164.6299 20.937856 163.34724 19.655196 161.76489 19.655196 M 161.76489 21.110009 C 162.54224 21.110009 163.175085 21.742367 163.175085 22.519722 C 163.175085 23.297562 162.54224 23.92992 161.76489 23.92992 C 160.98753 23.92992 160.35517 23.297562 160.35517 22.519722 C 160.35517 21.742367 160.98753 21.110009 161.76489 21.110009" fill="#303478"/><path d="M 79.701535 43.99576 C 78.522652 43.99576 77.56393 43.037039 77.56393 41.85864 C 77.56393 40.679758 78.522652 39.721036 79.701535 39.721036 C 80.879933 39.721036 81.838655 40.679758 81.838655 41.85864 C 81.838655 43.037039 80.879933 43.99576 79.701535 43.99576 Z" fill="#fffffe"/><path d="M 79.701487 38.993727 C 78.119136 38.993727 76.83696 40.276387 76.83696 41.858253 C 76.83696 43.440604 78.119136 44.723263 79.701487 44.723263 C 81.28384 44.723263 82.566498 43.440604 82.566498 41.858253 C 82.566498 40.276387 81.28384 38.993727 79.701487 38.993727 M 79.701487 40.44854 C 80.47884 40.44854 81.111685 41.080898 81.111685 41.858253 C 81.111685 42.636092 80.47884 43.26845 79.701487 43.26845 C 78.92413 43.26845 78.291774 42.636092 78.291774 41.858253 C 78.291774 41.080898 78.92413 40.44854 79.701487 40.44854" fill="#0f4c28"/><path d="M 96.714597 93.96561 C 95.5362 93.96561 94.57748 93.00689 94.57748 91.828005 C 94.57748 90.649607 95.5362 89.690886 96.714597 89.690886 C 97.89348 89.690886 98.8522 90.649607 98.8522 91.828005 C 98.8522 93.00689 97.89348 93.96561 96.714597 93.96561 Z" fill="#fffffe"/><path d="M 96.714597 88.96353 C 95.132246 88.96353 93.849586 90.24619 93.849586 91.828054 C 93.849586 93.410405 95.132246 94.693064 96.714597 94.693064 C 98.29695 94.693064 99.57912 93.410405 99.57912 91.828054 C 99.57912 90.24619 98.29695 88.96353 96.714597 88.96353 M 96.714597 90.41834 C 97.49195 90.41834 98.12431 91.0507 98.12431 91.828054 C 98.12431 92.605893 97.49195 93.23825 96.714597 93.23825 C 95.93724 93.23825 95.3044 92.605893 95.3044 91.828054 C 95.3044 91.0507 95.93724 90.41834 96.714597 90.41834" fill="#523520"/><path d="M 52.169016 66.111334 C 50.990618 66.111334 50.031896 65.152613 50.031896 63.974215 C 50.031896 62.79533 50.990618 61.83661 52.169016 61.83661 C 53.3479 61.83661 54.30662 62.79533 54.30662 63.974215 C 54.30662 65.152613 53.3479 66.111334 52.169016 66.111334 Z" fill="#fffffe"/><path d="M 52.169016 61.1093 C 50.586665 61.1093 49.304005 62.39196 49.304005 63.973827 C 49.304005 65.556178 50.586665 66.838837 52.169016 66.838837 C 53.751367 66.838837 55.03354 65.556178 55.03354 63.973827 C 55.03354 62.39196 53.751367 61.1093 52.169016 61.1093 M 52.169016 62.564113 C 52.94637 62.564113 53.57873 63.19647 53.57873 63.973827 C 53.57873 64.751666 52.94637 65.384025 52.169016 65.384025 C 51.39166 65.384025 50.758818 64.751666 50.758818 63.973827 C 50.758818 63.19647 51.39166 62.564113 52.169016 62.564113" fill="#441a66"/><path d="M 33.897299 27.771255 L 142.97186 94.840534 L 180.02642 57.394146 L 89.347475 19.027832 L 19.322018 75.93573 L 46.99643 94.69311 L 173.88808 24.459617" stroke="#fffbd0" stroke-linecap="round" stroke-linejoin="round" stroke-width="1"/></g></g></svg>
